<?xml version="1.0" encoding="UTF-8"?><svg id="Layer_1" xmlns="http://www.w3.org/2000/svg" viewBox="0 0 46.65769 35"><defs><style>.cls-1{fill:#f5f5f5;}</style></defs><path class="cls-1" d="M0,30L11.65769,5h1l.46631-1h1l.46631-1h1l.46631-1h1l.46631-1h1l.46631-1h25l-.46631,1h1l-.46631,1h1l-.46631,1h1l-.46631,1h1l-.46631,1h1l-11.65769,25h-1l-.46631,1h-1l-.46631,1h-1l-.46631,1h-1l-.46631,1h-1l-.46631,1H7.66846l6.52831-14h1l.46631-1h1l.46631-1h1l.46631-1h1l.46631-1h1l.46631-1h1l.46631-1h1l.46631-1h1l.46631-1h1l.46631-1h1l.46631-1h1l.46631-1h4l-1.86523,4h-1l-.46631,1h-1l-.46631,1h-1l-.46631,1h-1l-.46631,1h-1l-.46631,1h-1l-.46631,1h-1l-.46631,1h-1l-.46631,1h-1l-.46631,1h-1l-.46631,1h-1l-.46631,1h11l6.99461-15h-15l-11.65769,25H2.66846l.46631-1h-1l.46631-1h-1l.46631-1h-1l.46631-1H.53369l.46631-1H0Z"/></svg>