<?xml version="1.0" encoding="UTF-8"?><svg id="Layer_1" xmlns="http://www.w3.org/2000/svg" viewBox="0 0 31.33154 35"><defs><style>.cls-1{fill:#f5f5f5;}</style></defs><path class="cls-1" d="M0,20l2.33154-5h1l.46631-1h1l.46631-1h1l.46631-1h1l.46631-1h1l.46631-1h1l.46631-1h1l.46631-1h1l.46631-1h1l.46631-1h1l.46631-1h1l.46631-1h1l.46631-1h1l.46631-1h1l.46631-1h1l.46631-1h5l-6.99461,15h9l-.46631,1h-1l-.46631,1h-1l-.46631,1h-1l-.46631,1h-1l-.46631,1h-5l-6.99461,15h-5l12.59031-27h-1l-.46631,1h-1l-.46631,1h-1l-.46631,1h-1l-.46631,1h-1l-.46631,1h-1l-.46631,1h-1l-.46631,1h7l-2.33154,5H0Z"/></svg>