<?xml version="1.0" encoding="UTF-8"?><svg id="Layer_1" xmlns="http://www.w3.org/2000/svg" viewBox="0 0 48.98923 35"><defs><style>.cls-1{fill:#f5f5f5;}</style></defs><path class="cls-1" d="M0,30L11.65769,5h1l.46631-1h1l.46631-1h1l.46631-1h1l.46631-1h1l.46631-1h30l-2.33154,5h-1l-.46631,1h-1l-.46631,1h-1l-.46631,1h-1l-.46631,1h-1l-.46631,1h-20l-6.99461,15h15l2.33154-5h-15l2.33154-5h20l-.46631,1h1l-.46631,1h1l-.46631,1h1l-.46631,1h1l-.46631,1h1l-4.66308,10h-1l-.46631,1h-1l-.46631,1h-1l-.46631,1h-1l-.46631,1h-1l-.46631,1H2.66846l.46631-1h-1l.46631-1h-1l.46631-1h-1l.46631-1H.53369l.46631-1H0Z"/></svg>