<?xml version="1.0" encoding="UTF-8"?><svg id="Layer_1" xmlns="http://www.w3.org/2000/svg" viewBox="0 0 51.32077 35"><defs><style>.cls-1{fill:#900;}.cls-2{fill:#f5f5f5;}</style></defs><polygon class="cls-1" points="16.32077 0 41.32077 0 36.65769 10 11.65769 10 16.32077 0"/><path class="cls-2" d="M3.26415,28h1l.46631-1h1l.46631-1h1l.46631-1h1l.46631-1h1l.46631-1h1l.46631-1h1l.46631-1h1l.46631-1h1l.46631-1h1l.46631-1h1l.46631-1h1l.46631-1h1l.46631-1h1l.46631-1h1l.46631-1h1l.46631-1h1l.46631-1h1l.46631-1H11.65769L16.32077,0h35l-3.26415,7h-1l-.46631,1h-1l-.46631,1h-1l-.46631,1h-1l-.46631,1h-1l-.46631,1h-1l-.46631,1h-1l-.46631,1h-1l-.46631,1h-1l-.46631,1h-1l-.46631,1h-1l-.46631,1h-1l-.46631,1h-1l-.46631,1h-1l-.46631,1h-1l-.46631,1h-1l-.46631,1h-1l-.46631,1h-1l-.46631,1h-1l-.46631,1h-1l-.46631,1h-1l-.46631,1h-1l-.46631,1h-1l-.46631,1h-1l-.46631,1h-1l-.46631,1h-1l-.46631,1h-1l-.46631,1h-1l-.46631,1H0l3.26415-7Z"/></svg>