<?xml version="1.0" encoding="UTF-8"?><svg id="Layer_1" xmlns="http://www.w3.org/2000/svg" viewBox="0 0 46.65769 35"><defs><style>.cls-1{fill:#f5f5f5;}</style></defs><path class="cls-1" d="M0,30l4.66308-10h2l.46631-1h1l.46631-1h2l.46631-1h-2l.46631-1h-1l.46631-1h-2l4.66308-10h1l.46631-1h1l.46631-1h1l.46631-1h1l.46631-1h1l.46631-1h25l-.46631,1h1l-.46631,1h1l-.46631,1h1l-.46631,1h1l-.46631,1h1l-4.66308,10h-2l-.46631,1h-1l-.46631,1h-2l-.46631,1h2l-.46631,1h1l-.46631,1h2l-4.66308,10h-1l-.46631,1h-1l-.46631,1h-1l-.46631,1h-1l-.46631,1h-1l-.46631,1H7.66846l4.66308-10h15l2.33154-5h-15l2.33154-5h15l2.33154-5h-15l-11.65769,25H2.66846l.46631-1h-1l.46631-1h-1l.46631-1h-1l.46631-1H.53369l.46631-1H0Z"/></svg>