<?xml version="1.0" encoding="UTF-8"?><svg id="Layer_1" xmlns="http://www.w3.org/2000/svg" viewBox="0 0 48.98923 35"><defs><style>.cls-1{fill:#f5f5f5;}</style></defs><path class="cls-1" d="M0,35l4.66308-10h25l6.99461-15h-15l-2.33154,5h15l-2.33154,5H11.99461l.46631-1h-1l.46631-1h-1l.46631-1h-1l.46631-1h-1l.46631-1h-1l4.66308-10h1l.46631-1h1l.46631-1h1l.46631-1h1l.46631-1h1l.46631-1h25l-.46631,1h1l-.46631,1h1l-.46631,1h1l-.46631,1h1l-.46631,1h1l-11.65769,25h-1l-.46631,1h-1l-.46631,1h-1l-.46631,1h-1l-.46631,1h-1l-.46631,1H0Z"/></svg>