<?xml version="1.0" encoding="UTF-8"?><svg id="Layer_1" xmlns="http://www.w3.org/2000/svg" viewBox="0 0 76.32077 35"><defs><style>.cls-1{fill:#f5f5f5;}</style></defs><path class="cls-1" d="M15,35l2.33154-5h5l2.33154-5h27l.46631-1h1l.46631-1h2l.46631-1h-2l.46631-1h-1l.46631-1h-17l.46631-1h-2l.46631-1h-2l.46631-1h-2l.46631-1h-2l.46631-1h-2l2.33154-5h15l2.33154-5h5l2.33154-5h20l-2.33154,5h-1l-.46631,1h-1l-.46631,1h-1l-.46631,1h-1l-.46631,1h-1l-.46631,1h-17l-.46631,1h-1l-.46631,1h-2l-.46631,1h2l-.46631,1h1l-.46631,1h17l-.46631,1h1l-.46631,1h1l-.46631,1h1l-.46631,1h1l-.46631,1h1l-4.66308,10h-2l-.46631,1h-2l-.46631,1h-2l-.46631,1h-2l-.46631,1h-2l-.46631,1H15Z"/><path class="cls-1" d="M0,35l2.33154-5h4l-.46631,1h1l-1.86523,4h-2l1.39892-3h-2l-.46631,1h2l-.93262,2H0ZM12.33154,30l1.39892-3h2l.46631-1h3l-.93262,2h-2l.46631-1h-1l-.46631,1h1l-.46631,1h2l-.46631,1h-3l.46631-1h-1l-.46631,1h-1ZM11.99461,20l.93262-2h1l-.93262,2h-1ZM13.85985,16l.46631-1h1l-.46631,1h-1ZM14.92723,18l.93262-2h2l-1.86523,4h-1l.46631-1h2l.93262-2h-2l-.46631,1h-1ZM21.99461,20l.46631-1h4l-.46631,1h-1l.93262-2h-1l-.93262,2h-2ZM22.92723,18l.46631-1h1l-.46631,1h-1ZM21.65769,10l.93262-2h2l.46631-1h-1l-1.39892,3h-1ZM23.65769,10l.46631-1h3l.46631-1h-2l.46631-1h1l-1.39892,3h-2ZM23.52292,6l.46631-1h3l-.46631,1h-3ZM27.52292,6l.46631-1h1l-.46631,1h-1ZM41.32077,0h2l-2.33154,5h-1l.93262-2h-1l-.46631,1h3l1.39892-3h1l.46631-1h1l-2.33154,5h-1l1.39892-3h-3l.46631-1h-1l.46631-1Z"/></svg>