<?xml version="1.0" encoding="UTF-8"?><svg id="Layer_1" xmlns="http://www.w3.org/2000/svg" viewBox="0 0 41.32077 35"><defs><style>.cls-1{fill:#f5f5f5;}</style></defs><path class="cls-1" d="M6.32077,0h10l-1.39892,3h1l-1.39892,3h1l-1.39892,3h1l-1.39892,3h1l-1.39892,3h1l-1.39892,3h1l-1.39892,3h1l-1.39892,3h1l1.39892-3h1l1.39892-3h1l1.39892-3h1l1.39892-3h1l1.39892-3h1l1.39892-3h1l1.39892-3h1l1.39892-3h10l-4.66308,10h-1l-1.16577,2.5h-1l-1.16577,2.5h-1l-1.16577,2.5h-1l-1.16577,2.5h-1l-1.16577,2.5h-1l-1.16577,2.5h-1l-1.16577,2.5h-1l-1.16577,2.5h-1l-1.16577,2.5h-1l-1.16577,2.5H0l1.16577-2.5H.16577l1.16577-2.5H.33154l1.16577-2.5H.49731l1.16577-2.5H.66308l1.16577-2.5H.82885l1.16577-2.5H.99461l1.16577-2.5h-1l1.16577-2.5h-1l1.16577-2.5h-1l1.16577-2.5h-1L6.32077,0Z"/></svg>