<?xml version="1.0" encoding="UTF-8"?><svg id="Layer_1" xmlns="http://www.w3.org/2000/svg" viewBox="0 0 51.32077 35"><defs><style>.cls-1{fill:#f5f5f5;}</style></defs><path class="cls-1" d="M0,35l4.66308-10h1l.46631-1h1l.46631-1h1l.46631-1h1l.46631-1h1l.46631-1h1l.46631-1h1l.46631-1h1l.46631-1h-1l.46631-1h-1l.46631-1h-1l.46631-1h-1l.46631-1h-1l.46631-1h-1l.46631-1h-1l.46631-1h-1L16.32077,0h10l-.46631,1h1l-.46631,1h1l-.46631,1h1l-.46631,1h1l-.46631,1h1l-.46631,1h1l-.46631,1h1l-.46631,1h1l.46631-1h1l.46631-1h1l.46631-1h1l.46631-1h1l.46631-1h1l.46631-1h1l.46631-1h1l.46631-1h10l-4.66308,10h-1l-.46631,1h-1l-.46631,1h-1l-.46631,1h-1l-.46631,1h-1l-.46631,1h-1l-.46631,1h-1l-.46631,1h-1l-.46631,1h1l-.46631,1h1l-.46631,1h1l-.46631,1h1l-.46631,1h1l-.46631,1h1l-.46631,1h1l-.46631,1h1l-.93262,2h-1l-.46631,1h-1l-.46631,1h-1l-.46631,1h-1l-.46631,1h-1l-.46631,1h-1l-.46631,1h-1l-.46631,1h-1l-.46631,1h-2l.46631-1h-1l.46631-1h-1l.46631-1h-1l.46631-1h-1l.46631-1h-1l.46631-1h-1l.46631-1h-1l.46631-1h-1l-.46631,1h-1l-.46631,1h-1l-.46631,1h-1l-.46631,1h-1l-.46631,1h-1l-.46631,1h-1l-.46631,1h-1l-.46631,1H0Z"/></svg>