<svg xmlns="http://www.w3.org/2000/svg" width="35" height="35">
	<path class="letter" fill="whitesmoke" d="M 0 30 l 0 -25 l 1 0 l 0 -1 l 1 0 l 0 -1 l 1 0 l 0 -1 l 1 0 l 0 -1 l 1 0 l 0 -1 l 25 0 l 0 1 l 1 0 l 0 1 l 1 0 l 0 1 l 1 0 l 0 1 l 1 0 l 0 1 l 1 0 l 0 25 l -1 0 l 0 1 l -1 0 l 0 1 l -1 0 l 0 1 l -1 0 l 0 1 l -1 0 l 0 1 l -20 0 l 0 -14 l 1 0 l 0 -1 l 1 0 l 0 -1 l 1 0 l 0 -1 l 1 0 l 0 -1 l 1 0 l 0 -1 l 1 0 l 0 -1 l 1 0 l 0 -1 l 1 0 l 0 -1 l 1 0 l 0 -1 l 1 0 l 0 -1 l 1 0 l 0 -1 l 4 0 l 0 4 l -1 0 l 0 1 l -1 0 l 0 1 l -1 0 l 0 1 l -1 0 l 0 1 l -1 0 l 0 1 l -1 0 l 0 1 l -1 0 l 0 1 l -1 0 l 0 1 l -1 0 l 0 1 l -1 0 l 0 1 l -1 0 l 0 1 l 11 0 l 0 -15 l -15 0 l 0 25 l -5 0 l 0 -1 l -1 0 l 0 -1 l -1 0 l 0 -1 l -1 0 l 0 -1 l -1 0 l 0 -1 l -1 0 z" />
</svg>
