<svg xmlns="http://www.w3.org/2000/svg" width="29" height="35">
	<path class="letter" fill="whitesmoke" d="M 0 20 l 0 -5 l 1 0 l 0 -1 l 1 0 l 0 -1 l 1 0 l 0 -1 l 1 0 l 0 -1 l 1 0 l 0 -1 l 1 0 l 0 -1 l 1 0 l 0 -1 l 1 0 l 0 -1 l 1 0 l 0 -1 l 1 0 l 0 -1 l 1 0 l 0 -1 l 1 0 l 0 -1 l 1 0 l 0 -1 l 1 0 l 0 -1 l 1 0 l 0 -1 l 5 0 l 0 15 l 9 0 l 0 1 l -1 0 l 0 1 l -1 0 l 0 1 l -1 0 l 0 1 l -1 0 l 0 1 l -1 0 l -4 0 l 0 15 l -5 0 l 0 -27 l -1 0 l 0 1 l -1 0 l 0 1 l -1 0 l 0 1 l -1 0 l 0 1 l -1 0 l 0 1 l -1 0 l 0 1 l -1 0 l 0 1 l 7 0 l 0 5 z" />
</svg>
