<svg xmlns="http://www.w3.org/2000/svg" width="60" height="35">
	<path class="letter" fill="whitesmoke" d="M 15 35 l 0 -5 l 5 0 l 0 -5 l 27 0 l 0 -1 l 1 0 l 0 -1 l 2 0 l 0 -1 l -2 0 l 0 -1 l -1 0 l 0 -1 l -17 0 l 0 -1 l -2 0 l 0 -1 l -2 0 l 0 -1 l -2 0 l 0 -1 l -2 0 l 0 -1 l -2 0 l 0 -5 l 15 0 l 0 -5 l 5 0 l 0 -5 l 20 0 l 0 5 l -1 0 l 0 1 l -1 0 l 0 1 l -1 0 l 0 1 l -1 0 l 0 1 l -1 0 l 0 1 l -17 0 l 0 1 l -1 0 l 0 1 l -2 0 l 0 1 l 2 0 l 0 1 l 1 0 l 0 1 l 17 0 l 0 1 l 1 0 l 0 1 l 1 0 l 0 1 l 1 0 l 0 1 l 1 0 l 0 1 l 1 0 l 0 10 l -2 0 l 0 1 l -2 0 l 0 1 l -2 0 l 0 1 l -2 0 l 0 1 l -2 0 l 0 1 z" />
	<path class="bleed" fill="whitesmoke" d="M 0 35 l 0 -5 l 4 0 l 0 1 l 1 0 l 0 4 l -2 0 l 0 -3 l -2 0 l 0 1 l 2 0 l 0 2 z M 10 30 l 0 -3 l 2 0 l 0 -1 l 3 0 l 0 2 l -2 0 l 0 -1 l -1 0 l 0 1 l 1 0 l 0 1 l 2 0 l 0 1 l -3 0 l 0 -1 l -1 0 l 0 1 z M 5 20 l 0 -2 l 1 0 l 0 2 z m 0 -4 l 0 -1 l 1 0 l 0 1 z m 2 2 l 0 -2 l 2 0 l 0 4 l -1 0 l 0 -1 l 2 0 l 0 -2 l -2 0 l 0 1 z M 15 20 l 0 -1 l 4 0 l 0 1 l -1 0 l 0 -2 l -1 0 l 0 2 z m 0 -2 l 0 -1 l 1 0 l 0 1 z M 10 10 l 0 -2 l 2 0 l 0 -1 l -1 0 l 0 3 z m 2 0 l 0 -1 l 3 0 l 0 -1 l -2 0 l 0 -1 l 1 0 l 0 3 z m -2 -4 l 0 -1 l 3 0 l 0 1 z m 4 0 l 0 -1 l 1 0 l 0 1 z M 25 0 l 2 0 l 0 5 l -1 0 l 0 -2 l -1 0 l 0 1 l 3 0 l 0 -3 l 1 0 l 0 -1 l 1 0 l 0 5 l -1 0 l 0 -3 l -3 0 l 0 -1 l -1 0 z" />
</svg>
