<svg xmlns="http://www.w3.org/2000/svg" width="35" height="35">
	<path class="letter" fill="whitesmoke" d="M 0 35 l 0 -10 l 22 0 l 0 -1 l 1 0 l 0 -1 l 2 0 l 0 -1 l -2 0 l 0 -1 l -1 0 l 0 -1 l -17 0 l 0 -1 l -1 0 l 0 -1 l -1 0 l 0 -1 l -1 0 l 0 -1 l -1 0 l 0 -1 l -1 0 l 0 -10 l 1 0 l 0 -1 l 1 0 l 0 -1 l 1 0 l 0 -1 l 1 0 l 0 -1 l 1 0 l 0 -1 l 30 0 l 0 5 l -1 0 l 0 1 l -1 0 l 0 1 l -1 0 l 0 1 l -1 0 l 0 1 l -1 0 l 0 1 l -17 0 l 0 1 l -1 0 l 0 1 l -2 0 l 0 1 l 2 0 l 0 1 l 1 0 l 0 1 l 17 0 l 0 1 l 1 0 l 0 1 l 1 0 l 0 1 l 1 0 l 0 1 l 1 0 l 0 1 l 1 0 l 0 10 l -1 0 l 0 1 l -1 0 l 0 1 l -1 0 l 0 1 l -1 0 l 0 1 l -1 0 l 0 1 z" />
</svg>
