<svg xmlns="http://www.w3.org/2000/svg" width="35" height="35">
	<path class="letter" fill="whitesmoke" d="M 0 0 l 10 0 l 0 3 l 1 0 l 0 3 l 1 0 l 0 3 l 1 0 l 0 3 l 1 0 l 0 3 l 1 0 l 0 3 l 1 0 l 0 3 l 1 0 l 0 3 l 1 0 l 0 -3 l 1 0 l 0 -3 l 1 0 l 0 -3 l 1 0 l 0 -3 l 1 0 l 0 -3 l 1 0 l 0 -3 l 1 0 l 0 -3 l 1 0 l 0 -3 l 10 0 l 0 10 l -1 0 l 0 2.5 l -1 0 l 0 2.5 l -1 0 l 0 2.5 l -1 0 l 0 2.5 l -1 0 l 0 2.5 l -1 0 l 0 2.5 l -1 0 l 0 2.5 l -1 0 l 0 2.5 l -1 0 l 0 2.5 l -1 0 l 0 2.5 l -15 0 l 0 -2.5 l -1 0 l 0 -2.5 l -1 0 l 0 -2.5 l -1 0 l 0 -2.5 l -1 0 l 0 -2.5 l -1 0 l 0 -2.5 l -1 0 l 0 -2.5 l -1 0 l 0 -2.5 l -1 0 l 0 -2.5 l -1 0 l 0 -2.5 l -1 0 z" />
</svg>
