<?xml version="1.0" encoding="UTF-8"?><svg id="Layer_1" xmlns="http://www.w3.org/2000/svg" viewBox="0 0 51.32 35"><defs><style>.cls-1{fill:#f5f5f5;}</style></defs><path class="cls-1" d="M21.32,0h30l-2.33,5h-1l-.47,1h-1l-.47,1h-1l-.47,1h-1l-.47,1h-1l-.47,1h-17l-.47,1h-1l-.47,1h-2l-.47,1h2l-.47,1h1l-.47,1h17l-.47,1h1l-.47,1h1l-.47,1h1l-.47,1h1l-.47,1h1l-4.66,10h-2l-.47,1h-2l-.47,1h-2l-.47,1h-2l-.47,1h-2l-.47,1H0l2.33-5h1l.47-1h1l.47-1h1l.47-1h1l.47-1h1l.47-1h17l.47-1h1l.47-1h2l.47-1h-2l.47-1h-1l.47-1H11.99l.47-1h-1l.47-1h-1l.47-1h-1l.47-1h-1l.47-1h-1l4.66-10h1l.47-1h1l.47-1h1l.47-1h1l.47-1h1l.47-1Z"/></svg>