<?xml version="1.0" encoding="UTF-8"?><svg id="Layer_1" xmlns="http://www.w3.org/2000/svg" viewBox="0 0 76.32 35"><defs><style>.cls-1{fill:#f5f5f5;}</style></defs><path class="cls-1" d="M46.32,0h30l-2.33,5h-1l-.47,1h-1l-.47,1h-1l-.47,1h-1l-.47,1h-1l-.47,1h-17l-.47,1h-1l-.47,1h-2l-.47,1h2l-.47,1h1l-.47,1h17l-.47,1h1l-.47,1h1l-.47,1h1l-.47,1h1l-.47,1h1l-4.66,10h-2l-.47,1h-2l-.47,1h-2l-.47,1h-2l-.47,1h-2l-.47,1h-25l2.33-5h1l.47-1h1l.47-1h1l.47-1h1l.47-1h1l.47-1h17l.47-1h1l.47-1h2l.47-1h-2l.47-1h-1l.47-1h-17l.47-1h-1l.47-1h-1l.47-1h-1l.47-1h-1l.47-1h-1l2.33-5h10l2.33-5h5l2.33-5h-10Z"/><polygon class="cls-1" points="2.33 30 7.33 30 5 35 0 35 2.33 30"/><polygon class="cls-1" points="14.33 15 19.33 15 16.99 20 11.99 20 14.33 15"/><polygon class="cls-1" points="23.99 5 28.99 5 26.66 10 21.66 10 23.99 5"/><polygon class="cls-1" points="14.66 25 19.66 25 17.33 30 12.33 30 14.66 25"/><polygon class="cls-1" points="24.33 15 29.33 15 26.99 20 21.99 20 24.33 15"/><polygon class="cls-1" points="17.33 30 27.33 30 25 35 15 35 17.33 30"/><polygon class="cls-1" points="31.66 10 36.66 10 34.33 15 29.33 15 31.66 10"/><polygon class="cls-1" points="24.66 25 34.66 25 32.33 30 22.33 30 24.66 25"/><polygon class="cls-1" points="41.32 0 46.32 0 43.99 5 38.99 5 41.32 0"/><polygon class="cls-1" points="34.33 15 39.33 15 36.99 20 31.99 20 34.33 15"/></svg>