<?xml version="1.0" encoding="UTF-8"?><svg id="Layer_1" xmlns="http://www.w3.org/2000/svg" viewBox="0 0 51.32 35"><defs><style>.cls-1{fill:#900;}.cls-2{fill:#f5f5f5;}</style></defs><path class="cls-2" d="M16.32,0h10l-1.4,3h1l-1.4,3h1l-1.4,3h1l-1.4,3h1l-1.4,3h1l-1.4,3h1l-1.4,3h1l-1.4,3h1l1.4-3h1l1.4-3h1l1.4-3h1l1.4-3h1l1.4-3h1l1.4-3h1l1.4-3h1l1.4-3h10l-4.66,10h-1l-1.17,2.5h-1l-1.17,2.5h-1l-1.17,2.5h-1l-1.17,2.5h-1l-1.17,2.5h-1l-1.17,2.5h-1l-1.17,2.5h-1l-1.17,2.5h-1l-1.17,2.5h-1l-1.17,2.5h-15l1.17-2.5h-1l1.17-2.5h-1l1.17-2.5h-1l1.17-2.5h-1l1.17-2.5h-1l1.17-2.5h-1l1.17-2.5h-1l1.17-2.5h-1l1.17-2.5h-1l1.17-2.5h-1L16.32,0Z"/></svg>