<?xml version="1.0" encoding="UTF-8"?><svg id="Layer_1" xmlns="http://www.w3.org/2000/svg" viewBox="0 0 51.32 35"><defs><style>.cls-1{fill:#f5f5f5;}</style></defs><path class="cls-1" d="M16.32,0h7l-.47,1h1l-.47,1h1l-.47,1h1l-.47,1h1l-.47,1h1l-.47,1h1l-.47,1h1l-.47,1h1l-.47,1h1l-.47,1h1l-.47,1h1l.47-1h1l.47-1h1l.47-1h1l.47-1h1l.47-1h1l.47-1h1l.47-1h1l.47-1h1l.47-1h1l.47-1h1l.47-1h7l-3.26,7h-1l-.47,1h-1l-.47,1h-1l-.47,1h-1l-.47,1h-1l-.47,1h-1l-.47,1h-1l-.47,1h-1l-.47,1h-1l-.47,1h-1l-.47,1h-1l-.47,1h1l-.47,1h1l-.47,1h1l-.47,1h1l-.47,1h1l-.47,1h1l-.47,1h1l-.47,1h1l-.47,1h1l-.47,1h1l-.47,1h1l-.93,2h-1l-.47,1h-1l-.47,1h-1l-.47,1h-1l-.47,1h-1l-.47,1h-2l.47-1h-1l.47-1h-1l.47-1h-1l.47-1h-1l.47-1h-1l.47-1h-1l.47-1h-1l.47-1h-1l.47-1h-1l.47-1h-1l.47-1h-1l-.47,1h-1l-.47,1h-1l-.47,1h-1l-.47,1h-1l-.47,1h-1l-.47,1h-1l-.47,1h-1l-.47,1h-1l-.47,1h-1l-.47,1h-1l-.47,1H0l3.26-7h1l.47-1h1l.47-1h1l.47-1h1l.47-1h1l.47-1h1l.47-1h1l.47-1h1l.47-1h1l.47-1h1l.47-1h1l.47-1h-1l.47-1h-1l.47-1h-1l.47-1h-1l.47-1h-1l.47-1h-1l.47-1h-1l.47-1h-1l.47-1h-1l.47-1h-1l.47-1h-1l3.26-7Z"/></svg>