<svg xmlns="http://www.w3.org/2000/svg" viewBox="0 0 60 35">
	<path class="letter" fill="whitesmoke" d="M 30 0 l 30 0 l 0 5 l -1 0 l 0 1 l -1 0 l 0 1 l -1 0 l 0 1 l -1 0 l 0 1 l -1 0 l 0 1 l -17 0 l 0 1 l -1 0 l 0 1 l -2 0 l 0 1 l 2 0 l 0 1 l 1 0 l 0 1 l 17 0 l 0 1 l 1 0 l 0 1 l 1 0 l 0 1 l 1 0 l 0 1 l 1 0 l 0 1 l 1 0 l 0 10 l -2 0 l 0 1 l -2 0 l 0 1 l -2 0 l 0 1 l -2 0 l 0 1 l -2 0 l 0 1 l -25 0 l 0 -5 l 1 0 l 0 -1 l 1 0 l 0 -1 l 1 0 l 0 -1 l 1 0 l 0 -1 l 1 0 l 0 -1 l 17 0 l 0 -1 l 1 0 l 0 -1 l 2 0 l 0 -1 l -2 0 l 0 -1 l -1 0 l 0 -1 l -17 0 l 0 -1 l -1 0 l 0 -1 l -1 0 l 0 -1 l -1 0 l 0 -1 l -1 0 l 0 -1 l -1 0 l 0 -5 l 10 0 l 0 -5 l 5 0 l 0 -5 z" />
	<g class="glitch" fill="whitesmoke">
		<rect x="0" y="30" width="5" height="5" />
		<rect x="5" y="15" width="5" height="5" />
		<rect x="10" y="5" width="5" height="5" />
		<rect x="10" y="25" width="5" height="5" />
		<rect x="15" y="15" width="5" height="5" />
		<rect x="15" y="30" width="10" height="5" />
		<rect x="20" y="10" width="5" height="5" />
		<rect x="20" y="25" width="10" height="5" />
		<rect x="25" y="0" width="5" height="5" />
		<rect x="25" y="15" width="5" height="5" />
	</g>
</svg>
