<svg xmlns="http://www.w3.org/2000/svg" viewBox="0 0 35 35">
	<path class="letter" fill="whitesmoke" d="M 0 0 l 7 0 l 0 1 l 1 0 l 0 1 l 1 0 l 0 1 l 1 0 l 0 1 l 1 0 l 0 1 l 1 0 l 0 1 l 1 0 l 0 1 l 1 0 l 0 1 l 1 0 l 0 1 l 1 0 l 0 1 l 1 0 l 0 1 l 1 0 l 0 -1 l 1 0 l 0 -1 l 1 0 l 0 -1 l 1 0 l 0 -1 l 1 0 l 0 -1 l 1 0 l 0 -1 l 1 0 l 0 -1 l 1 0 l 0 -1 l 1 0 l 0 -1 l 1 0 l 0 -1 l 1 0 l 0 -1 l 7 0 l 0 7 l -1 0 l 0 1 l -1 0 l 0 1 l -1 0 l 0 1 l -1 0 l 0 1 l -1 0 l 0 1 l -1 0 l 0 1 l -1 0 l 0 1 l -1 0 l 0 1 l -1 0 l 0 1 l -1 0 l 0 1 l -1 0 l 0 1 l 1 0 l 0 1 l 1 0 l 0 1 l 1 0 l 0 1 l 1 0 l 0 1 l 1 0 l 0 1 l 1 0 l 0 1 l 1 0 l 0 1 l 1 0 l 0 1 l 1 0 l 0 1 l 1 0 l 0 1 l 1 0 l 0 2 l -1 0 l 0 1 l -1 0 l 0 1 l -1 0 l 0 1 l -1 0 l 0 1 l -1 0 l 0 1 l -2 0 l 0 -1 l -1 0 l 0 -1 l -1 0 l 0 -1 l -1 0 l 0 -1 l -1 0 l 0 -1 l -1 0 l 0 -1 l -1 0 l 0 -1 l -1 0 l 0 -1 l -1 0 l 0 -1 l -1 0 l 0 -1 l -1 0 l 0 -1 l -1 0 l 0 1 l -1 0 l 0 1 l -1 0 l 0 1 l -1 0 l 0 1 l -1 0 l 0 1 l -1 0 l 0 1 l -1 0 l 0 1 l -1 0 l 0 1 l -1 0 l 0 1 l -1 0 l 0 1 l -1 0 l 0 1 l -7 0 l 0 -7 l 1 0 l 0 -1 l 1 0 l 0 -1 l 1 0 l 0 -1 l 1 0 l 0 -1 l 1 0 l 0 -1 l 1 0 l 0 -1 l 1 0 l 0 -1 l 1 0 l 0 -1 l 1 0 l 0 -1 l 1 0 l 0 -1 l 1 0 l 0 -1 l -1 0 l 0 -1 l -1 0 l 0 -1 l -1 0 l 0 -1 l -1 0 l 0 -1 l -1 0 l 0 -1 l -1 0 l 0 -1 l -1 0 l 0 -1 l -1 0 l 0 -1 l -1 0 l 0 -1 l -1 0 l 0 -1 l -1 0 z" />
</svg>
